<mxfile host="app.diagrams.net" agent="Mozilla/5.0 (Windows NT 10.0; Win64; x64) AppleWebKit/537.36 (KHTML, like Gecko) Chrome/129.0.0.0 Safari/537.36" version="24.7.17">
  <diagram name="PÃ¡gina-1" id="zIrXhcPa_6RVVhEnYqjO">
    <mxGraphModel grid="1" page="1" gridSize="10" guides="1" tooltips="1" connect="1" arrows="1" fold="1" pageScale="1" pageWidth="827" pageHeight="1169" math="0" shadow="0">
      <root>
        <mxCell id="0" />
        <mxCell id="1" parent="0" />
        <mxCell id="IYdfTkO1_yGu84r4tvZo-28" value="AWS Cloud" style="points=[[0,0],[0.25,0],[0.5,0],[0.75,0],[1,0],[1,0.25],[1,0.5],[1,0.75],[1,1],[0.75,1],[0.5,1],[0.25,1],[0,1],[0,0.75],[0,0.5],[0,0.25]];outlineConnect=0;gradientColor=none;html=1;whiteSpace=wrap;fontSize=12;fontStyle=1;container=1;pointerEvents=0;collapsible=0;recursiveResize=0;shape=mxgraph.aws4.group;grIcon=mxgraph.aws4.group_aws_cloud_alt;strokeColor=#232F3E;fillColor=none;verticalAlign=top;align=left;spacingLeft=30;fontColor=#232F3E;dashed=0;" vertex="1" parent="1">
          <mxGeometry x="-1560" y="1410" width="1480" height="1320" as="geometry" />
        </mxCell>
        <mxCell id="IYdfTkO1_yGu84r4tvZo-29" value="Region US East (N. Virginia) [us-east-1]" style="points=[[0,0],[0.25,0],[0.5,0],[0.75,0],[1,0],[1,0.25],[1,0.5],[1,0.75],[1,1],[0.75,1],[0.5,1],[0.25,1],[0,1],[0,0.75],[0,0.5],[0,0.25]];outlineConnect=0;gradientColor=none;html=1;whiteSpace=wrap;fontSize=12;fontStyle=0;container=1;pointerEvents=0;collapsible=0;recursiveResize=0;shape=mxgraph.aws4.group;grIcon=mxgraph.aws4.group_region;strokeColor=#00A4A6;fillColor=none;verticalAlign=top;align=left;spacingLeft=30;fontColor=#147EBA;dashed=1;" vertex="1" parent="IYdfTkO1_yGu84r4tvZo-28">
          <mxGeometry x="35" y="40" width="1405" height="1240" as="geometry" />
        </mxCell>
        <mxCell id="IYdfTkO1_yGu84r4tvZo-30" value="VPC PROD 10.0.0.0/16" style="points=[[0,0],[0.25,0],[0.5,0],[0.75,0],[1,0],[1,0.25],[1,0.5],[1,0.75],[1,1],[0.75,1],[0.5,1],[0.25,1],[0,1],[0,0.75],[0,0.5],[0,0.25]];outlineConnect=0;gradientColor=none;html=1;whiteSpace=wrap;fontSize=12;fontStyle=0;container=1;pointerEvents=0;collapsible=0;recursiveResize=0;shape=mxgraph.aws4.group;grIcon=mxgraph.aws4.group_vpc2;strokeColor=#8C4FFF;fillColor=none;verticalAlign=top;align=left;spacingLeft=30;fontColor=#AAB7B8;dashed=0;" vertex="1" parent="IYdfTkO1_yGu84r4tvZo-29">
          <mxGeometry x="230" y="80" width="1027" height="1120" as="geometry" />
        </mxCell>
        <mxCell id="IYdfTkO1_yGu84r4tvZo-31" value="Availability Zone us-east-1a" style="fillColor=none;strokeColor=#147EBA;dashed=1;verticalAlign=top;fontStyle=0;fontColor=#147EBA;whiteSpace=wrap;html=1;" vertex="1" parent="IYdfTkO1_yGu84r4tvZo-30">
          <mxGeometry x="53" y="123" width="327" height="957" as="geometry" />
        </mxCell>
        <mxCell id="IYdfTkO1_yGu84r4tvZo-32" value="Public subnet 10.0.1.0/24" style="points=[[0,0],[0.25,0],[0.5,0],[0.75,0],[1,0],[1,0.25],[1,0.5],[1,0.75],[1,1],[0.75,1],[0.5,1],[0.25,1],[0,1],[0,0.75],[0,0.5],[0,0.25]];outlineConnect=0;gradientColor=none;html=1;whiteSpace=wrap;fontSize=12;fontStyle=0;container=1;pointerEvents=0;collapsible=0;recursiveResize=0;shape=mxgraph.aws4.group;grIcon=mxgraph.aws4.group_security_group;grStroke=0;strokeColor=#7AA116;fillColor=#F2F6E8;verticalAlign=top;align=left;spacingLeft=30;fontColor=#248814;dashed=0;" vertex="1" parent="IYdfTkO1_yGu84r4tvZo-30">
          <mxGeometry x="67" y="157" width="293" height="273" as="geometry" />
        </mxCell>
        <mxCell id="IYdfTkO1_yGu84r4tvZo-36" value="Private subnet 10.0.3.0/24" style="points=[[0,0],[0.25,0],[0.5,0],[0.75,0],[1,0],[1,0.25],[1,0.5],[1,0.75],[1,1],[0.75,1],[0.5,1],[0.25,1],[0,1],[0,0.75],[0,0.5],[0,0.25]];outlineConnect=0;gradientColor=none;html=1;whiteSpace=wrap;fontSize=12;fontStyle=0;container=1;pointerEvents=0;collapsible=0;recursiveResize=0;shape=mxgraph.aws4.group;grIcon=mxgraph.aws4.group_security_group;grStroke=0;strokeColor=#00A4A6;fillColor=#E6F6F7;verticalAlign=top;align=left;spacingLeft=30;fontColor=#147EBA;dashed=0;" vertex="1" parent="IYdfTkO1_yGu84r4tvZo-30">
          <mxGeometry x="67" y="480" width="293" height="280" as="geometry" />
        </mxCell>
        <mxCell id="IYdfTkO1_yGu84r4tvZo-47" value="Private subnet 10.0.5.0/24" style="points=[[0,0],[0.25,0],[0.5,0],[0.75,0],[1,0],[1,0.25],[1,0.5],[1,0.75],[1,1],[0.75,1],[0.5,1],[0.25,1],[0,1],[0,0.75],[0,0.5],[0,0.25]];outlineConnect=0;gradientColor=none;html=1;whiteSpace=wrap;fontSize=12;fontStyle=0;container=1;pointerEvents=0;collapsible=0;recursiveResize=0;shape=mxgraph.aws4.group;grIcon=mxgraph.aws4.group_security_group;grStroke=0;strokeColor=#00A4A6;fillColor=#E6F6F7;verticalAlign=top;align=left;spacingLeft=30;fontColor=#147EBA;dashed=0;" vertex="1" parent="IYdfTkO1_yGu84r4tvZo-30">
          <mxGeometry x="67.25" y="838" width="292.75" height="199" as="geometry" />
        </mxCell>
        <mxCell id="IYdfTkO1_yGu84r4tvZo-48" value="&lt;b&gt;&lt;font style=&quot;font-size: 10px;&quot;&gt;RDS&lt;/font&gt;&lt;/b&gt;" style="sketch=0;points=[[0,0,0],[0.25,0,0],[0.5,0,0],[0.75,0,0],[1,0,0],[0,1,0],[0.25,1,0],[0.5,1,0],[0.75,1,0],[1,1,0],[0,0.25,0],[0,0.5,0],[0,0.75,0],[1,0.25,0],[1,0.5,0],[1,0.75,0]];outlineConnect=0;fontColor=#232F3E;fillColor=#C925D1;strokeColor=#ffffff;dashed=0;verticalLabelPosition=bottom;verticalAlign=top;align=center;html=1;fontSize=12;fontStyle=0;aspect=fixed;shape=mxgraph.aws4.resourceIcon;resIcon=mxgraph.aws4.rds;" vertex="1" parent="IYdfTkO1_yGu84r4tvZo-47">
          <mxGeometry x="194.25" y="82.5" width="43" height="43" as="geometry" />
        </mxCell>
        <mxCell id="IYdfTkO1_yGu84r4tvZo-66" value="&lt;span style=&quot;color: rgba(0, 0, 0, 0); font-family: monospace; font-size: 0px; text-align: start; text-wrap: nowrap;&quot;&gt;%3CmxGraphModel%3E%3Croot%3E%3CmxCell%20id%3D%220%22%2F%3E%3CmxCell%20id%3D%221%22%20parent%3D%220%22%2F%3E%3CmxCell%20id%3D%222%22%20value%3D%22%26lt%3Bb%26gt%3B%26lt%3Bfont%20style%3D%26quot%3Bfont-size%3A%2010px%3B%26quot%3B%26gt%3BEC2%26lt%3B%2Ffont%26gt%3B%26lt%3B%2Fb%26gt%3B%22%20style%3D%22sketch%3D0%3Bpoints%3D%5B%5B0%2C0%2C0%5D%2C%5B0.25%2C0%2C0%5D%2C%5B0.5%2C0%2C0%5D%2C%5B0.75%2C0%2C0%5D%2C%5B1%2C0%2C0%5D%2C%5B0%2C1%2C0%5D%2C%5B0.25%2C1%2C0%5D%2C%5B0.5%2C1%2C0%5D%2C%5B0.75%2C1%2C0%5D%2C%5B1%2C1%2C0%5D%2C%5B0%2C0.25%2C0%5D%2C%5B0%2C0.5%2C0%5D%2C%5B0%2C0.75%2C0%5D%2C%5B1%2C0.25%2C0%5D%2C%5B1%2C0.5%2C0%5D%2C%5B1%2C0.75%2C0%5D%5D%3BoutlineConnect%3D0%3BfontColor%3D%23232F3E%3BfillColor%3D%23ED7100%3BstrokeColor%3D%23ffffff%3Bdashed%3D0%3BverticalLabelPosition%3Dbottom%3BverticalAlign%3Dtop%3Balign%3Dcenter%3Bhtml%3D1%3BfontSize%3D12%3BfontStyle%3D0%3Baspect%3Dfixed%3Bshape%3Dmxgraph.aws4.resourceIcon%3BresIcon%3Dmxgraph.aws4.ec2%3B%22%20vertex%3D%221%22%20parent%3D%221%22%3E%3CmxGeometry%20x%3D%22-1090%22%20y%3D%221915.5%22%20width%3D%2247%22%20height%3D%2247%22%20as%3D%22geometry%22%2F%3E%3C%2FmxCell%3E%3C%2Froot%3E%3C%2FmxGraphModel%3E&lt;/span&gt;" style="fillColor=none;strokeColor=#147EBA;dashed=1;verticalAlign=top;fontStyle=0;fontColor=#147EBA;whiteSpace=wrap;html=1;" vertex="1" parent="IYdfTkO1_yGu84r4tvZo-30">
          <mxGeometry x="575" y="123" width="317" height="957" as="geometry" />
        </mxCell>
        <mxCell id="IYdfTkO1_yGu84r4tvZo-68" value="Public subnet 10.0.2.0/24" style="points=[[0,0],[0.25,0],[0.5,0],[0.75,0],[1,0],[1,0.25],[1,0.5],[1,0.75],[1,1],[0.75,1],[0.5,1],[0.25,1],[0,1],[0,0.75],[0,0.5],[0,0.25]];outlineConnect=0;gradientColor=none;html=1;whiteSpace=wrap;fontSize=12;fontStyle=0;container=1;pointerEvents=0;collapsible=0;recursiveResize=0;shape=mxgraph.aws4.group;grIcon=mxgraph.aws4.group_security_group;grStroke=0;strokeColor=#7AA116;fillColor=#F2F6E8;verticalAlign=top;align=left;spacingLeft=30;fontColor=#248814;dashed=0;" vertex="1" parent="IYdfTkO1_yGu84r4tvZo-30">
          <mxGeometry x="590" y="157" width="287" height="273" as="geometry" />
        </mxCell>
        <mxCell id="IYdfTkO1_yGu84r4tvZo-83" value="&lt;b&gt;&lt;font style=&quot;font-size: 10px;&quot;&gt;EC2&lt;/font&gt;&lt;/b&gt;" style="sketch=0;points=[[0,0,0],[0.25,0,0],[0.5,0,0],[0.75,0,0],[1,0,0],[0,1,0],[0.25,1,0],[0.5,1,0],[0.75,1,0],[1,1,0],[0,0.25,0],[0,0.5,0],[0,0.75,0],[1,0.25,0],[1,0.5,0],[1,0.75,0]];outlineConnect=0;fontColor=#232F3E;fillColor=#ED7100;strokeColor=#ffffff;dashed=0;verticalLabelPosition=bottom;verticalAlign=top;align=center;html=1;fontSize=12;fontStyle=0;aspect=fixed;shape=mxgraph.aws4.resourceIcon;resIcon=mxgraph.aws4.ec2;" vertex="1" parent="IYdfTkO1_yGu84r4tvZo-68">
          <mxGeometry x="39.5" y="155.5" width="47" height="47" as="geometry" />
        </mxCell>
        <mxCell id="IYdfTkO1_yGu84r4tvZo-85" value="Amazon Route 53" style="sketch=0;outlineConnect=0;fontColor=#232F3E;gradientColor=none;strokeColor=#ffffff;fillColor=#232F3E;dashed=0;verticalLabelPosition=middle;verticalAlign=bottom;align=center;html=1;whiteSpace=wrap;fontSize=10;fontStyle=1;spacing=3;shape=mxgraph.aws4.productIcon;prIcon=mxgraph.aws4.route_53;" vertex="1" parent="IYdfTkO1_yGu84r4tvZo-30">
          <mxGeometry x="1074" y="45" width="57" height="91" as="geometry" />
        </mxCell>
        <mxCell id="IYdfTkO1_yGu84r4tvZo-90" value="&lt;b style=&quot;color: rgb(0, 0, 0); font-size: 10px; text-wrap: wrap;&quot;&gt;CERTIFICATE MANAGER&lt;/b&gt;" style="sketch=0;points=[[0,0,0],[0.25,0,0],[0.5,0,0],[0.75,0,0],[1,0,0],[0,1,0],[0.25,1,0],[0.5,1,0],[0.75,1,0],[1,1,0],[0,0.25,0],[0,0.5,0],[0,0.75,0],[1,0.25,0],[1,0.5,0],[1,0.75,0]];outlineConnect=0;fontColor=#232F3E;fillColor=#DD344C;strokeColor=#ffffff;dashed=0;verticalLabelPosition=bottom;verticalAlign=top;align=center;html=1;fontSize=12;fontStyle=0;aspect=fixed;shape=mxgraph.aws4.resourceIcon;resIcon=mxgraph.aws4.certificate_manager_3;" vertex="1" parent="IYdfTkO1_yGu84r4tvZo-30">
          <mxGeometry x="1078" y="157.5" width="53" height="53" as="geometry" />
        </mxCell>
        <mxCell id="IYdfTkO1_yGu84r4tvZo-92" value="Private subnet 10.0.4.0/24" style="points=[[0,0],[0.25,0],[0.5,0],[0.75,0],[1,0],[1,0.25],[1,0.5],[1,0.75],[1,1],[0.75,1],[0.5,1],[0.25,1],[0,1],[0,0.75],[0,0.5],[0,0.25]];outlineConnect=0;gradientColor=none;html=1;whiteSpace=wrap;fontSize=12;fontStyle=0;container=1;pointerEvents=0;collapsible=0;recursiveResize=0;shape=mxgraph.aws4.group;grIcon=mxgraph.aws4.group_security_group;grStroke=0;strokeColor=#00A4A6;fillColor=#E6F6F7;verticalAlign=top;align=left;spacingLeft=30;fontColor=#147EBA;dashed=0;" vertex="1" parent="IYdfTkO1_yGu84r4tvZo-30">
          <mxGeometry x="590.25" y="481" width="286.75" height="279" as="geometry" />
        </mxCell>
        <mxCell id="IYdfTkO1_yGu84r4tvZo-95" value="Private subnet 10.0.6.0/24" style="points=[[0,0],[0.25,0],[0.5,0],[0.75,0],[1,0],[1,0.25],[1,0.5],[1,0.75],[1,1],[0.75,1],[0.5,1],[0.25,1],[0,1],[0,0.75],[0,0.5],[0,0.25]];outlineConnect=0;gradientColor=none;html=1;whiteSpace=wrap;fontSize=12;fontStyle=0;container=1;pointerEvents=0;collapsible=0;recursiveResize=0;shape=mxgraph.aws4.group;grIcon=mxgraph.aws4.group_security_group;grStroke=0;strokeColor=#00A4A6;fillColor=#E6F6F7;verticalAlign=top;align=left;spacingLeft=30;fontColor=#147EBA;dashed=0;" vertex="1" parent="IYdfTkO1_yGu84r4tvZo-30">
          <mxGeometry x="590.25" y="837.5" width="286.75" height="199.5" as="geometry" />
        </mxCell>
        <mxCell id="IYdfTkO1_yGu84r4tvZo-128" value="&lt;b&gt;&lt;font style=&quot;font-size: 10px;&quot;&gt;RDS&lt;/font&gt;&lt;/b&gt;" style="sketch=0;points=[[0,0,0],[0.25,0,0],[0.5,0,0],[0.75,0,0],[1,0,0],[0,1,0],[0.25,1,0],[0.5,1,0],[0.75,1,0],[1,1,0],[0,0.25,0],[0,0.5,0],[0,0.75,0],[1,0.25,0],[1,0.5,0],[1,0.75,0]];outlineConnect=0;fontColor=#232F3E;fillColor=#C925D1;strokeColor=#ffffff;dashed=0;verticalLabelPosition=bottom;verticalAlign=top;align=center;html=1;fontSize=12;fontStyle=0;aspect=fixed;shape=mxgraph.aws4.resourceIcon;resIcon=mxgraph.aws4.rds;" vertex="1" parent="IYdfTkO1_yGu84r4tvZo-95">
          <mxGeometry x="154.75" y="83" width="43" height="43" as="geometry" />
        </mxCell>
        <mxCell id="IYdfTkO1_yGu84r4tvZo-96" value="&lt;b&gt;&lt;font style=&quot;font-size: 10px;&quot;&gt;RDS READ REPLICA&lt;/font&gt;&lt;/b&gt;" style="sketch=0;points=[[0,0,0],[0.25,0,0],[0.5,0,0],[0.75,0,0],[1,0,0],[0,1,0],[0.25,1,0],[0.5,1,0],[0.75,1,0],[1,1,0],[0,0.25,0],[0,0.5,0],[0,0.75,0],[1,0.25,0],[1,0.5,0],[1,0.75,0]];outlineConnect=0;fontColor=#232F3E;fillColor=#C925D1;strokeColor=#ffffff;dashed=0;verticalLabelPosition=bottom;verticalAlign=top;align=center;html=1;fontSize=12;fontStyle=0;aspect=fixed;shape=mxgraph.aws4.resourceIcon;resIcon=mxgraph.aws4.rds;" vertex="1" parent="IYdfTkO1_yGu84r4tvZo-95">
          <mxGeometry x="60.25" y="83" width="43" height="43" as="geometry" />
        </mxCell>
        <mxCell id="IYdfTkO1_yGu84r4tvZo-50" value="&lt;b&gt;&lt;font style=&quot;font-size: 10px;&quot;&gt;EC2&lt;/font&gt;&lt;/b&gt;" style="sketch=0;points=[[0,0,0],[0.25,0,0],[0.5,0,0],[0.75,0,0],[1,0,0],[0,1,0],[0.25,1,0],[0.5,1,0],[0.75,1,0],[1,1,0],[0,0.25,0],[0,0.5,0],[0,0.75,0],[1,0.25,0],[1,0.5,0],[1,0.75,0]];outlineConnect=0;fontColor=#232F3E;fillColor=#ED7100;strokeColor=#ffffff;dashed=0;verticalLabelPosition=bottom;verticalAlign=top;align=center;html=1;fontSize=12;fontStyle=0;aspect=fixed;shape=mxgraph.aws4.resourceIcon;resIcon=mxgraph.aws4.ec2;" vertex="1" parent="IYdfTkO1_yGu84r4tvZo-30">
          <mxGeometry x="233" y="307.5" width="47" height="47" as="geometry" />
        </mxCell>
        <mxCell id="IYdfTkO1_yGu84r4tvZo-100" value="Auto Scaling group" style="points=[[0,0],[0.25,0],[0.5,0],[0.75,0],[1,0],[1,0.25],[1,0.5],[1,0.75],[1,1],[0.75,1],[0.5,1],[0.25,1],[0,1],[0,0.75],[0,0.5],[0,0.25]];outlineConnect=0;gradientColor=none;html=1;whiteSpace=wrap;fontSize=12;fontStyle=0;container=1;pointerEvents=0;collapsible=0;recursiveResize=0;shape=mxgraph.aws4.groupCenter;grIcon=mxgraph.aws4.group_auto_scaling_group;grStroke=1;strokeColor=#D86613;fillColor=none;verticalAlign=top;align=center;fontColor=#D86613;dashed=1;spacingTop=25;" vertex="1" parent="IYdfTkO1_yGu84r4tvZo-30">
          <mxGeometry x="150" y="210" width="640" height="200" as="geometry" />
        </mxCell>
        <mxCell id="IYdfTkO1_yGu84r4tvZo-101" value="&lt;b&gt;&lt;font style=&quot;font-size: 14px;&quot;&gt;WEB TIER&lt;/font&gt;&lt;/b&gt;" style="text;html=1;align=center;verticalAlign=middle;whiteSpace=wrap;rounded=0;rotation=90;" vertex="1" parent="IYdfTkO1_yGu84r4tvZo-30">
          <mxGeometry x="855" y="264" width="115" height="35" as="geometry" />
        </mxCell>
        <mxCell id="IYdfTkO1_yGu84r4tvZo-102" value="&lt;span style=&quot;font-size: 14px;&quot;&gt;&lt;b&gt;APPLICATION TIER&lt;/b&gt;&lt;/span&gt;" style="text;html=1;align=center;verticalAlign=middle;whiteSpace=wrap;rounded=0;rotation=90;" vertex="1" parent="IYdfTkO1_yGu84r4tvZo-30">
          <mxGeometry x="837.5" y="564" width="150" height="35" as="geometry" />
        </mxCell>
        <mxCell id="IYdfTkO1_yGu84r4tvZo-103" value="&lt;span style=&quot;font-size: 14px;&quot;&gt;&lt;b&gt;DATABASE TIER&lt;/b&gt;&lt;/span&gt;" style="text;html=1;align=center;verticalAlign=middle;whiteSpace=wrap;rounded=0;rotation=90;" vertex="1" parent="IYdfTkO1_yGu84r4tvZo-30">
          <mxGeometry x="855" y="920.5" width="115" height="35" as="geometry" />
        </mxCell>
        <mxCell id="IYdfTkO1_yGu84r4tvZo-93" value="&lt;b&gt;&lt;font style=&quot;font-size: 10px;&quot;&gt;EC2&lt;/font&gt;&lt;/b&gt;" style="sketch=0;points=[[0,0,0],[0.25,0,0],[0.5,0,0],[0.75,0,0],[1,0,0],[0,1,0],[0.25,1,0],[0.5,1,0],[0.75,1,0],[1,1,0],[0,0.25,0],[0,0.5,0],[0,0.75,0],[1,0.25,0],[1,0.5,0],[1,0.75,0]];outlineConnect=0;fontColor=#232F3E;fillColor=#ED7100;strokeColor=#ffffff;dashed=0;verticalLabelPosition=bottom;verticalAlign=top;align=center;html=1;fontSize=12;fontStyle=0;aspect=fixed;shape=mxgraph.aws4.resourceIcon;resIcon=mxgraph.aws4.ec2;" vertex="1" parent="IYdfTkO1_yGu84r4tvZo-30">
          <mxGeometry x="643" y="630" width="47" height="47" as="geometry" />
        </mxCell>
        <mxCell id="IYdfTkO1_yGu84r4tvZo-112" style="edgeStyle=orthogonalEdgeStyle;rounded=0;orthogonalLoop=1;jettySize=auto;html=1;exitX=1;exitY=0.5;exitDx=0;exitDy=0;exitPerimeter=0;entryX=0;entryY=0.5;entryDx=0;entryDy=0;entryPerimeter=0;shape=link;" edge="1" parent="IYdfTkO1_yGu84r4tvZo-30" source="IYdfTkO1_yGu84r4tvZo-48" target="IYdfTkO1_yGu84r4tvZo-96">
          <mxGeometry relative="1" as="geometry" />
        </mxCell>
        <mxCell id="IYdfTkO1_yGu84r4tvZo-115" value="&lt;b&gt;NACL&lt;/b&gt;" style="text;html=1;align=center;verticalAlign=middle;whiteSpace=wrap;rounded=0;" vertex="1" parent="IYdfTkO1_yGu84r4tvZo-30">
          <mxGeometry x="64" y="190" width="60" height="30" as="geometry" />
        </mxCell>
        <mxCell id="IYdfTkO1_yGu84r4tvZo-113" value="&lt;b&gt;NACL&lt;/b&gt;" style="text;html=1;align=center;verticalAlign=middle;whiteSpace=wrap;rounded=0;" vertex="1" parent="IYdfTkO1_yGu84r4tvZo-30">
          <mxGeometry x="817" y="169" width="60" height="30" as="geometry" />
        </mxCell>
        <mxCell id="IYdfTkO1_yGu84r4tvZo-114" value="&lt;b&gt;NACL&lt;/b&gt;" style="text;html=1;align=center;verticalAlign=middle;whiteSpace=wrap;rounded=0;" vertex="1" parent="IYdfTkO1_yGu84r4tvZo-30">
          <mxGeometry x="64" y="509.25" width="60" height="30" as="geometry" />
        </mxCell>
        <mxCell id="IYdfTkO1_yGu84r4tvZo-116" value="&lt;b&gt;NACL&lt;/b&gt;" style="text;html=1;align=center;verticalAlign=middle;whiteSpace=wrap;rounded=0;" vertex="1" parent="IYdfTkO1_yGu84r4tvZo-30">
          <mxGeometry x="813" y="500" width="60" height="30" as="geometry" />
        </mxCell>
        <mxCell id="IYdfTkO1_yGu84r4tvZo-118" value="&lt;b&gt;NACL&lt;/b&gt;" style="text;html=1;align=center;verticalAlign=middle;whiteSpace=wrap;rounded=0;" vertex="1" parent="IYdfTkO1_yGu84r4tvZo-30">
          <mxGeometry x="253" y="838" width="60" height="30" as="geometry" />
        </mxCell>
        <mxCell id="IYdfTkO1_yGu84r4tvZo-117" value="&lt;b&gt;NACL&lt;/b&gt;" style="text;html=1;align=center;verticalAlign=middle;whiteSpace=wrap;rounded=0;" vertex="1" parent="IYdfTkO1_yGu84r4tvZo-30">
          <mxGeometry x="770" y="837.5" width="60" height="30" as="geometry" />
        </mxCell>
        <mxCell id="IYdfTkO1_yGu84r4tvZo-119" value="&lt;b&gt;&lt;font style=&quot;font-size: 10px;&quot;&gt;NAT&lt;/font&gt;&lt;/b&gt;" style="sketch=0;outlineConnect=0;fontColor=#232F3E;gradientColor=none;fillColor=#8C4FFF;strokeColor=none;dashed=0;verticalLabelPosition=bottom;verticalAlign=top;align=center;html=1;fontSize=12;fontStyle=0;aspect=fixed;pointerEvents=1;shape=mxgraph.aws4.nat_gateway;" vertex="1" parent="IYdfTkO1_yGu84r4tvZo-30">
          <mxGeometry x="76" y="346" width="48" height="48" as="geometry" />
        </mxCell>
        <mxCell id="IYdfTkO1_yGu84r4tvZo-120" value="&lt;b&gt;&lt;font style=&quot;font-size: 10px;&quot;&gt;NAT&lt;/font&gt;&lt;/b&gt;" style="sketch=0;outlineConnect=0;fontColor=#232F3E;gradientColor=none;fillColor=#8C4FFF;strokeColor=none;dashed=0;verticalLabelPosition=bottom;verticalAlign=top;align=center;html=1;fontSize=12;fontStyle=0;aspect=fixed;pointerEvents=1;shape=mxgraph.aws4.nat_gateway;" vertex="1" parent="IYdfTkO1_yGu84r4tvZo-30">
          <mxGeometry x="813" y="337" width="48" height="48" as="geometry" />
        </mxCell>
        <mxCell id="IYdfTkO1_yGu84r4tvZo-104" value="Security group WEB-Tier-SG" style="fillColor=none;strokeColor=#DD3522;verticalAlign=top;fontStyle=0;fontColor=#DD3522;whiteSpace=wrap;html=1;" vertex="1" parent="IYdfTkO1_yGu84r4tvZo-30">
          <mxGeometry x="169.8800000000001" y="291" width="600.25" height="94" as="geometry" />
        </mxCell>
        <mxCell id="IYdfTkO1_yGu84r4tvZo-121" value="&lt;b&gt;TARGET GROUP&lt;/b&gt;" style="fillColor=none;strokeColor=#CC99FF;dashed=1;verticalAlign=top;fontStyle=0;fontColor=#5A6C86;whiteSpace=wrap;html=1;" vertex="1" parent="IYdfTkO1_yGu84r4tvZo-30">
          <mxGeometry x="390" y="264" width="175" height="130" as="geometry" />
        </mxCell>
        <mxCell id="IYdfTkO1_yGu84r4tvZo-52" value="&lt;b&gt;&lt;font style=&quot;font-size: 10px;&quot;&gt;EC2&lt;/font&gt;&lt;/b&gt;" style="sketch=0;points=[[0,0,0],[0.25,0,0],[0.5,0,0],[0.75,0,0],[1,0,0],[0,1,0],[0.25,1,0],[0.5,1,0],[0.75,1,0],[1,1,0],[0,0.25,0],[0,0.5,0],[0,0.75,0],[1,0.25,0],[1,0.5,0],[1,0.75,0]];outlineConnect=0;fontColor=#232F3E;fillColor=#ED7100;strokeColor=#ffffff;dashed=0;verticalLabelPosition=bottom;verticalAlign=top;align=center;html=1;fontSize=12;fontStyle=0;aspect=fixed;shape=mxgraph.aws4.resourceIcon;resIcon=mxgraph.aws4.ec2;" vertex="1" parent="IYdfTkO1_yGu84r4tvZo-30">
          <mxGeometry x="243" y="630" width="47" height="47" as="geometry" />
        </mxCell>
        <mxCell id="IYdfTkO1_yGu84r4tvZo-99" value="Security group APP-Tier-SG" style="fillColor=none;strokeColor=#DD3522;verticalAlign=top;fontStyle=0;fontColor=#DD3522;whiteSpace=wrap;html=1;" vertex="1" parent="IYdfTkO1_yGu84r4tvZo-30">
          <mxGeometry x="169.8800000000001" y="608.6300000000001" width="599.25" height="89.75" as="geometry" />
        </mxCell>
        <mxCell id="IYdfTkO1_yGu84r4tvZo-122" value="&lt;b&gt;TARGET GROUP&lt;/b&gt;" style="fillColor=none;strokeColor=#CC99FF;dashed=1;verticalAlign=top;fontStyle=0;fontColor=#5A6C86;whiteSpace=wrap;html=1;" vertex="1" parent="IYdfTkO1_yGu84r4tvZo-30">
          <mxGeometry x="390" y="580" width="170" height="130" as="geometry" />
        </mxCell>
        <mxCell id="IYdfTkO1_yGu84r4tvZo-105" value="Auto Scaling group" style="points=[[0,0],[0.25,0],[0.5,0],[0.75,0],[1,0],[1,0.25],[1,0.5],[1,0.75],[1,1],[0.75,1],[0.5,1],[0.25,1],[0,1],[0,0.75],[0,0.5],[0,0.25]];outlineConnect=0;gradientColor=none;html=1;whiteSpace=wrap;fontSize=12;fontStyle=0;container=1;pointerEvents=0;collapsible=0;recursiveResize=0;shape=mxgraph.aws4.groupCenter;grIcon=mxgraph.aws4.group_auto_scaling_group;grStroke=1;strokeColor=#D86613;fillColor=none;verticalAlign=top;align=center;fontColor=#D86613;dashed=1;spacingTop=25;" vertex="1" parent="IYdfTkO1_yGu84r4tvZo-30">
          <mxGeometry x="150" y="523" width="640" height="217" as="geometry" />
        </mxCell>
        <mxCell id="IYdfTkO1_yGu84r4tvZo-125" value="&lt;b&gt;WEB-ALB&lt;/b&gt;" style="sketch=0;outlineConnect=0;fontColor=#232F3E;gradientColor=none;fillColor=#8C4FFF;strokeColor=none;dashed=0;verticalLabelPosition=bottom;verticalAlign=top;align=center;html=1;fontSize=12;fontStyle=0;aspect=fixed;pointerEvents=1;shape=mxgraph.aws4.application_load_balancer;" vertex="1" parent="IYdfTkO1_yGu84r4tvZo-30">
          <mxGeometry x="445" y="121" width="58" height="58" as="geometry" />
        </mxCell>
        <mxCell id="IYdfTkO1_yGu84r4tvZo-126" value="&lt;b&gt;APP-ALB&lt;/b&gt;" style="sketch=0;outlineConnect=0;fontColor=#232F3E;gradientColor=none;fillColor=#8C4FFF;strokeColor=none;dashed=0;verticalLabelPosition=bottom;verticalAlign=top;align=center;html=1;fontSize=12;fontStyle=0;aspect=fixed;pointerEvents=1;shape=mxgraph.aws4.application_load_balancer;" vertex="1" parent="IYdfTkO1_yGu84r4tvZo-30">
          <mxGeometry x="441" y="427" width="58" height="58" as="geometry" />
        </mxCell>
        <mxCell id="IYdfTkO1_yGu84r4tvZo-127" value="&lt;b&gt;&lt;font style=&quot;font-size: 10px;&quot;&gt;RDS READ REPLICA&lt;/font&gt;&lt;/b&gt;" style="sketch=0;points=[[0,0,0],[0.25,0,0],[0.5,0,0],[0.75,0,0],[1,0,0],[0,1,0],[0.25,1,0],[0.5,1,0],[0.75,1,0],[1,1,0],[0,0.25,0],[0,0.5,0],[0,0.75,0],[1,0.25,0],[1,0.5,0],[1,0.75,0]];outlineConnect=0;fontColor=#232F3E;fillColor=#C925D1;strokeColor=#ffffff;dashed=0;verticalLabelPosition=bottom;verticalAlign=top;align=center;html=1;fontSize=12;fontStyle=0;aspect=fixed;shape=mxgraph.aws4.resourceIcon;resIcon=mxgraph.aws4.rds;" vertex="1" parent="IYdfTkO1_yGu84r4tvZo-30">
          <mxGeometry x="185" y="920.5" width="43" height="43" as="geometry" />
        </mxCell>
        <mxCell id="IYdfTkO1_yGu84r4tvZo-106" value="Security group DB-Tier-SG" style="fillColor=none;strokeColor=#DD3522;verticalAlign=top;fontStyle=0;fontColor=#DD3522;whiteSpace=wrap;html=1;" vertex="1" parent="IYdfTkO1_yGu84r4tvZo-30">
          <mxGeometry x="91" y="890" width="770" height="120" as="geometry" />
        </mxCell>
        <mxCell id="IYdfTkO1_yGu84r4tvZo-129" value="" style="edgeStyle=orthogonalEdgeStyle;rounded=0;orthogonalLoop=1;jettySize=auto;html=1;" edge="1" parent="IYdfTkO1_yGu84r4tvZo-29" source="IYdfTkO1_yGu84r4tvZo-124" target="IYdfTkO1_yGu84r4tvZo-125">
          <mxGeometry relative="1" as="geometry" />
        </mxCell>
        <mxCell id="IYdfTkO1_yGu84r4tvZo-124" value="&lt;b style=&quot;color: rgb(0, 0, 0); text-wrap: wrap; font-size: 10px;&quot;&gt;INTERNET GATEWAY&lt;/b&gt;" style="sketch=0;outlineConnect=0;fontColor=#232F3E;gradientColor=none;fillColor=#8C4FFF;strokeColor=none;dashed=0;verticalLabelPosition=bottom;verticalAlign=top;align=center;html=1;fontSize=12;fontStyle=0;aspect=fixed;pointerEvents=1;shape=mxgraph.aws4.internet_gateway;" vertex="1" parent="IYdfTkO1_yGu84r4tvZo-29">
          <mxGeometry x="675.25" y="50" width="58" height="58" as="geometry" />
        </mxCell>
        <mxCell id="IYdfTkO1_yGu84r4tvZo-98" value="&lt;b&gt;&lt;font style=&quot;font-size: 10px;&quot;&gt;CLOUDWATCH&lt;/font&gt;&lt;/b&gt;" style="sketch=0;points=[[0,0,0],[0.25,0,0],[0.5,0,0],[0.75,0,0],[1,0,0],[0,1,0],[0.25,1,0],[0.5,1,0],[0.75,1,0],[1,1,0],[0,0.25,0],[0,0.5,0],[0,0.75,0],[1,0.25,0],[1,0.5,0],[1,0.75,0]];points=[[0,0,0],[0.25,0,0],[0.5,0,0],[0.75,0,0],[1,0,0],[0,1,0],[0.25,1,0],[0.5,1,0],[0.75,1,0],[1,1,0],[0,0.25,0],[0,0.5,0],[0,0.75,0],[1,0.25,0],[1,0.5,0],[1,0.75,0]];outlineConnect=0;fontColor=#232F3E;fillColor=#E7157B;strokeColor=#ffffff;dashed=0;verticalLabelPosition=bottom;verticalAlign=top;align=center;html=1;fontSize=12;fontStyle=0;aspect=fixed;shape=mxgraph.aws4.resourceIcon;resIcon=mxgraph.aws4.cloudwatch_2;" vertex="1" parent="IYdfTkO1_yGu84r4tvZo-29">
          <mxGeometry x="115" y="240" width="50" height="50" as="geometry" />
        </mxCell>
        <mxCell id="IYdfTkO1_yGu84r4tvZo-86" value="&lt;b&gt;S3&lt;/b&gt;" style="sketch=0;points=[[0,0,0],[0.25,0,0],[0.5,0,0],[0.75,0,0],[1,0,0],[0,1,0],[0.25,1,0],[0.5,1,0],[0.75,1,0],[1,1,0],[0,0.25,0],[0,0.5,0],[0,0.75,0],[1,0.25,0],[1,0.5,0],[1,0.75,0]];outlineConnect=0;fontColor=#232F3E;fillColor=#7AA116;strokeColor=#ffffff;dashed=0;verticalLabelPosition=bottom;verticalAlign=top;align=center;html=1;fontSize=12;fontStyle=0;aspect=fixed;shape=mxgraph.aws4.resourceIcon;resIcon=mxgraph.aws4.s3;" vertex="1" parent="IYdfTkO1_yGu84r4tvZo-29">
          <mxGeometry x="112" y="361" width="56" height="56" as="geometry" />
        </mxCell>
        <mxCell id="IYdfTkO1_yGu84r4tvZo-89" value="&lt;b&gt;&lt;font style=&quot;font-size: 10px;&quot;&gt;CLOUDFRONT&lt;/font&gt;&lt;/b&gt;" style="sketch=0;points=[[0,0,0],[0.25,0,0],[0.5,0,0],[0.75,0,0],[1,0,0],[0,1,0],[0.25,1,0],[0.5,1,0],[0.75,1,0],[1,1,0],[0,0.25,0],[0,0.5,0],[0,0.75,0],[1,0.25,0],[1,0.5,0],[1,0.75,0]];outlineConnect=0;fontColor=#232F3E;fillColor=#8C4FFF;strokeColor=#ffffff;dashed=0;verticalLabelPosition=bottom;verticalAlign=top;align=center;html=1;fontSize=12;fontStyle=0;aspect=fixed;shape=mxgraph.aws4.resourceIcon;resIcon=mxgraph.aws4.cloudfront;" vertex="1" parent="IYdfTkO1_yGu84r4tvZo-29">
          <mxGeometry x="112" y="560" width="51" height="51" as="geometry" />
        </mxCell>
        <mxCell id="IYdfTkO1_yGu84r4tvZo-87" value="&lt;b style=&quot;color: rgb(0, 0, 0); font-size: 10px; text-wrap: wrap;&quot;&gt;AWS IAM&lt;/b&gt;" style="sketch=0;points=[[0,0,0],[0.25,0,0],[0.5,0,0],[0.75,0,0],[1,0,0],[0,1,0],[0.25,1,0],[0.5,1,0],[0.75,1,0],[1,1,0],[0,0.25,0],[0,0.5,0],[0,0.75,0],[1,0.25,0],[1,0.5,0],[1,0.75,0]];outlineConnect=0;fontColor=#232F3E;fillColor=#DD344C;strokeColor=#ffffff;dashed=0;verticalLabelPosition=bottom;verticalAlign=top;align=center;html=1;fontSize=12;fontStyle=0;aspect=fixed;shape=mxgraph.aws4.resourceIcon;resIcon=mxgraph.aws4.identity_and_access_management;" vertex="1" parent="IYdfTkO1_yGu84r4tvZo-29">
          <mxGeometry x="108.5" y="670" width="54.5" height="54.5" as="geometry" />
        </mxCell>
        <mxCell id="IYdfTkO1_yGu84r4tvZo-88" value="&lt;b style=&quot;color: rgb(0, 0, 0); font-size: 10px; text-wrap: wrap;&quot;&gt;BUDGETS&lt;/b&gt;" style="sketch=0;points=[[0,0,0],[0.25,0,0],[0.5,0,0],[0.75,0,0],[1,0,0],[0,1,0],[0.25,1,0],[0.5,1,0],[0.75,1,0],[1,1,0],[0,0.25,0],[0,0.5,0],[0,0.75,0],[1,0.25,0],[1,0.5,0],[1,0.75,0]];outlineConnect=0;fontColor=#232F3E;fillColor=#7AA116;strokeColor=#ffffff;dashed=0;verticalLabelPosition=bottom;verticalAlign=top;align=center;html=1;fontSize=12;fontStyle=0;aspect=fixed;shape=mxgraph.aws4.resourceIcon;resIcon=mxgraph.aws4.budgets_2;" vertex="1" parent="IYdfTkO1_yGu84r4tvZo-29">
          <mxGeometry x="1311" y="361" width="50" height="50" as="geometry" />
        </mxCell>
        <mxCell id="IYdfTkO1_yGu84r4tvZo-107" value="&lt;b&gt;&lt;font style=&quot;font-size: 10px;&quot;&gt;LAMBDA&lt;/font&gt;&lt;/b&gt;" style="sketch=0;points=[[0,0,0],[0.25,0,0],[0.5,0,0],[0.75,0,0],[1,0,0],[0,1,0],[0.25,1,0],[0.5,1,0],[0.75,1,0],[1,1,0],[0,0.25,0],[0,0.5,0],[0,0.75,0],[1,0.25,0],[1,0.5,0],[1,0.75,0]];outlineConnect=0;fontColor=#232F3E;fillColor=#ED7100;strokeColor=#ffffff;dashed=0;verticalLabelPosition=bottom;verticalAlign=top;align=center;html=1;fontSize=12;fontStyle=0;aspect=fixed;shape=mxgraph.aws4.resourceIcon;resIcon=mxgraph.aws4.lambda;" vertex="1" parent="IYdfTkO1_yGu84r4tvZo-29">
          <mxGeometry x="1307" y="480" width="58" height="58" as="geometry" />
        </mxCell>
        <mxCell id="IYdfTkO1_yGu84r4tvZo-132" value="" style="edgeStyle=orthogonalEdgeStyle;rounded=0;orthogonalLoop=1;jettySize=auto;html=1;" edge="1" parent="1" source="IYdfTkO1_yGu84r4tvZo-108" target="IYdfTkO1_yGu84r4tvZo-124">
          <mxGeometry relative="1" as="geometry">
            <mxPoint x="-814.5" y="1425" as="targetPoint" />
          </mxGeometry>
        </mxCell>
        <mxCell id="IYdfTkO1_yGu84r4tvZo-108" value="" style="sketch=0;outlineConnect=0;gradientColor=none;fontColor=#545B64;strokeColor=none;fillColor=#879196;dashed=0;verticalLabelPosition=bottom;verticalAlign=top;align=center;html=1;fontSize=12;fontStyle=0;aspect=fixed;shape=mxgraph.aws4.illustration_users;pointerEvents=1" vertex="1" parent="1">
          <mxGeometry x="-865" y="1240" width="90" height="90" as="geometry" />
        </mxCell>
      </root>
    </mxGraphModel>
  </diagram>
</mxfile>
